# xmcd
#
# Track frame offsets:
#	150
#	14020
#	36202
#	49160
#	61860
#	75895
#	90072
#	100382
#	117467
#	128527
#	140777
#	152722
#	164875
#	176717
#	191020
#	203265
#	215507
#	234860
#
# Disc length: 3323 seconds
#
# Revision: 2
# Processed by: cddbd v1.4PL0 Copyright (c) Steve Scherf et al.
# Submitted via: audiograbber 1.81.03
#
DISCID=ed0cf912
DTITLE=Various Artist - The Golden Age Of Blue Chicago
DYEAR=1998
DGENRE=Blues
TTITLE0=Muddy Waters - Im Ready
TTITLE1=Magic Sam - I Need You So Bad
TTITLE2=Jimmy Reed - Big Boss Man
TTITLE3=Elmore James - The Sky Is Crying
TTITLE4=Eddie Taylor - Bad Boy
TTITLE5=Howlin Wolf - Somkestack Lightin
TTITLE6=Junior Wells - Messin With The Kid
TTITLE7=Otis Spann - It Must Have Been The Devil
TTITLE8=Jb Lenoir - Mama Talk To Your Daughter
TTITLE9=Little Walter - My Babe
TTITLE10=Otis Rush - All Your Love
TTITLE11=Earl Hooker - Blue Guitar
TTITLE12=Sunnyland Slim - Im A Lonesome Man
TTITLE13=Sonny Boy Williamson - Help Me
TTITLE14=Robert Jr Lockwood - Ramblin On My Mind
TTITLE15=Billy Boy Arnold - I Wish You Would
TTITLE16=Luther Allison - Five Long Years
TTITLE17=Hound Dog Taylor - Its Alright
EXTD=ID3G:   0
EXTT0=
EXTT1=
EXTT2=
EXTT3=
EXTT4=
EXTT5=
EXTT6=
EXTT7=
EXTT8=
EXTT9=
EXTT10=
EXTT11=
EXTT12=
EXTT13=
EXTT14=
EXTT15=
EXTT16=
EXTT17=
PLAYORDER=
